<?xml version="1.0" encoding="iso-8859-1"?>
<!-- Generator: Adobe Illustrator 19.0.0, SVG Export Plug-In . SVG Version: 6.00 Build 0)  -->
<svg version="1.1" id="Capa_1" xmlns="http://www.w3.org/2000/svg" xmlns:xlink="http://www.w3.org/1999/xlink" x="0px" y="0px"
	 viewBox="0 0 464 464" style="enable-background:new 0 0 464 464;" xml:space="preserve">
<g>
	<polygon style="fill:#FFEBDB;" points="308,448 324,448 340,448 340,336 308,336 	"/>
	<polygon style="fill:#FFEBDB;" points="372,448 388,448 404,448 404,336 372,336 	"/>
	<polygon style="fill:#FFEBDB;" points="68,448 84,448 100,448 100,336 68,336 	"/>
	<polygon style="fill:#FFEBDB;" points="132,448 148,448 164,448 164,336 132,336 	"/>
	<path style="fill:#FFEBDB;" d="M308,192h-32v40l-3.472,24.32c-2.155,15.157,8.385,29.191,23.542,31.346
		c1.101,0.157,2.21,0.247,3.322,0.27L308,232V192z"/>
	<path style="fill:#FFEBDB;" d="M404,232l8.608,55.936c15.306-0.32,27.454-12.988,27.134-28.294
		c-0.023-1.112-0.113-2.221-0.27-3.322L436,232v-40h-32V232z"/>
</g>
<path style="fill:#4F81BD;" d="M356,232h-48l-8.608,55.936c0.208,0,0.4,0.064,0.608,0.064c-0.208,0-0.4-0.064-0.608-0.064L292,336
	h64l0,0h64l-7.392-48.064c-0.208,0-0.4,0.064-0.608,0.064c0.208,0,0.4-0.064,0.608-0.064L404,232H356z"/>
<path style="fill:#D1E1E8;" d="M68,136H56.072c-7.145,0.001-13.423,4.738-15.384,11.608L28,192h40V136z"/>
<path style="fill:#FFEBDB;" d="M68,232v-40H36v40l-8.8,37.984c-3.477,8.678,0.74,18.532,9.418,22.009
	c0.716,0.287,1.45,0.524,2.198,0.711c1.868,0.439,3.798,0.549,5.704,0.328l9.648-25.088L68,232z"/>
<path style="fill:#D1E1E8;" d="M196,192h8l-12.688-44.392c-1.961-6.87-8.239-11.607-15.384-11.608H164v56H196z"/>
<path style="fill:#FFEBDB;" d="M164,232l13.824,35.944l9.648,25.088c1.906,0.221,3.836,0.111,5.704-0.328
	c9.071-2.263,14.59-11.451,12.327-20.522c-0.187-0.748-0.424-1.482-0.711-2.198L196,232v-40h-32V232z"/>
<polygon style="fill:#4F81BD;" points="187.472,293.032 177.824,267.944 164,232 164,192 164,136 140,136 140,184 92,184 92,136 
	68,136 68,192 68,232 54.176,267.944 44.528,293.032 28,336 68,336 100,336 132,336 164,336 204,336 "/>
<path style="fill:#FFEBDB;" d="M58.216,91.408c0.32,0.688,0.704,1.336,1.056,2.008c0.992,1.921,2.082,3.79,3.264,5.6
	c0.368,0.56,0.712,1.136,1.096,1.68c1.525,2.166,3.182,4.236,4.96,6.2c0.36,0.392,0.728,0.8,1.096,1.16
	c6.269,6.611,13.876,11.809,22.312,15.248V136c13.251,13.255,34.738,13.258,47.993,0.007c0.002-0.002,0.005-0.005,0.007-0.007
	v-12.696c8.437-3.442,16.044-8.643,22.312-15.256c0.368-0.384,0.736-0.8,1.096-1.16c1.778-1.964,3.435-4.034,4.96-6.2
	c0.384-0.544,0.728-1.12,1.096-1.68c1.182-1.81,2.272-3.679,3.264-5.6c0.352-0.672,0.736-1.32,1.056-2.008
	c0.994-2.128,1.867-4.31,2.616-6.536c0.36-1.04,0.696-2.08,1.008-3.144C179.1,75.964,179.972,69.999,180,64
	c-18.807-0.001-35.2-12.802-39.76-31.048L140,32l-20,20c-7.686,7.684-18.108,12-28.976,12H52c0.027,6.002,0.899,11.97,2.592,17.728
	c0.312,1.064,0.648,2.104,1.008,3.144C56.349,87.098,57.222,89.28,58.216,91.408z"/>
<path style="fill:#D1E1E8;" d="M92,136v48h48v-48c-13.251,13.255-34.738,13.258-47.993,0.007C92.005,136.005,92.002,136.002,92,136z
	"/>
<g>
	<path style="fill:#383838;" d="M120,52l20-20l0.24,0.952C144.8,51.198,161.193,63.999,180,64c0-35.346-28.654-64-64-64
		S52,28.654,52,64h39.024C101.892,64,112.314,59.684,120,52z"/>
	<path style="fill:#383838;" d="M60,456v8h48v-8c0-13.255-10.745-24-24-24S60,442.745,60,456z"/>
	<path style="fill:#383838;" d="M124,456v8h48v-8c0-13.255-10.745-24-24-24S124,442.745,124,456z"/>
</g>
<path style="fill:#FFEBDB;" d="M356,144l24-8v-12.696c24.167-9.776,39.99-33.234,40-59.304c-18.807-0.001-35.2-12.802-39.76-31.048
	L380,32l-20,20c-7.686,7.684-18.108,12-28.976,12H292c0.01,26.07,15.833,49.528,40,59.304V136L356,144z"/>
<path style="fill:#383838;" d="M360,52l20-20l0.24,0.952C384.8,51.198,401.193,63.999,420,64c0-35.346-28.654-64-64-64
	s-64,28.654-64,64h39.024C341.892,64,352.314,59.684,360,52z"/>
<path style="fill:#D1E1E8;" d="M431.312,147.608c-1.961-6.87-8.239-11.607-15.384-11.608H380l-24,8l-24-8h-35.928
	c-7.145,0.001-13.423,4.738-15.384,11.608L268,192h40v40h96v-40h40L431.312,147.608z"/>
<g>
	<path style="fill:#383838;" d="M300,456v8h48v-8c0-13.255-10.745-24-24-24S300,442.745,300,456z"/>
	<path style="fill:#383838;" d="M364,456v8h48v-8c0-13.255-10.745-24-24-24S364,442.745,364,456z"/>
	<path style="fill:#383838;" d="M75.648,113.648c-11.956-9.723-19.995-23.441-22.632-38.624C33.216,82.167,20.014,100.951,20,122v14
		l32-16L75.648,113.648z"/>
	<path style="fill:#383838;" d="M156.352,113.648c11.956-9.723,19.995-23.441,22.632-38.624c19.8,7.143,33.002,25.927,33.016,46.976
		v14l-32-16L156.352,113.648z"/>
</g>
<rect x="348" y="280" style="fill:#4571A6;" width="16" height="56"/>
<path style="fill:#BFCDD4;" d="M399.56,145.344l-18.544,12.36l-16.528-16.536L356,144l-8.488-2.832l-16.528,16.536l-18.544-12.36
	l-8.88,13.312l24,16c3.173,2.116,7.399,1.697,10.096-1L348,163.312V232h16v-68.688l10.344,10.344c2.697,2.697,6.923,3.116,10.096,1
	l24-16L399.56,145.344z"/>
<g>
</g>
<g>
</g>
<g>
</g>
<g>
</g>
<g>
</g>
<g>
</g>
<g>
</g>
<g>
</g>
<g>
</g>
<g>
</g>
<g>
</g>
<g>
</g>
<g>
</g>
<g>
</g>
<g>
</g>
</svg>
