<?xml version="1.0" encoding="iso-8859-1"?>
<!-- Generator: Adobe Illustrator 19.0.0, SVG Export Plug-In . SVG Version: 6.00 Build 0)  -->
<svg version="1.1" id="Capa_1" xmlns="http://www.w3.org/2000/svg" xmlns:xlink="http://www.w3.org/1999/xlink" x="0px" y="0px"
	 viewBox="0 0 512.001 512.001" style="enable-background:new 0 0 512.001 512.001;" xml:space="preserve">
<path style="fill:#5F6E9B;" d="M85.122,512c13.476,0,24.402-10.925,24.402-24.402V292.553c0-13.476-10.925-24.402-24.402-24.402
	S60.72,279.075,60.72,292.553v195.045C60.721,501.075,71.646,512,85.122,512z"/>
<path style="fill:#414B82;" d="M144.028,512c13.476,0,24.402-10.925,24.402-24.402V292.553c0-13.476-10.925-24.402-24.402-24.402
	c-13.477,0-24.402,10.925-24.402,24.402v195.045C119.626,501.075,130.552,512,144.028,512z"/>
<path style="fill:#1E2D64;" d="M11.123,145.143c0.133-26.401,22.056-47.88,48.871-47.88c13.24,0,92.981,0,109.167,0
	c26.815,0,48.739,21.479,48.871,47.88c0,0.034,0,0.068,0,0.102v149.391c0,11.231-9.104,20.335-20.335,20.335
	c-11.231,0-20.335-9.104-20.335-20.335V145.312c-0.043-3.867-3.941-7.38-8.202-7.38h-0.732v154.621H60.721V137.933h-0.727
	c-4.261,0-8.16,3.514-8.202,7.38v149.324c0,11.231-9.104,20.335-20.335,20.335s-20.335-9.104-20.335-20.335V145.245
	C11.122,145.211,11.122,145.177,11.123,145.143z"/>
<g>
	<path style="fill:#FFB69E;" d="M177.365,294.087v0.549c0,11.231,9.104,20.335,20.335,20.335c11.231,0,20.335-9.104,20.335-20.335
		v-0.549H177.365z"/>
	<path style="fill:#FFB69E;" d="M11.122,294.087v0.549c0,11.231,9.104,20.335,20.335,20.335s20.335-9.104,20.335-20.335v-0.549
		H11.122z"/>
</g>
<circle style="fill:#FFB69E;" cx="114.589" cy="42.144" r="42.144"/>
<path style="fill:#5AB4FF;" d="M114.584,153.189c-16.236,0-29.444-13.209-29.444-29.444s13.208-29.444,29.444-29.444
	c16.236,0,29.444,13.208,29.444,29.444S130.82,153.189,114.584,153.189z M114.584,108.81c-8.235,0-14.935,6.7-14.935,14.935
	c0,8.235,6.7,14.935,14.935,14.935s14.935-6.7,14.935-14.935S122.82,108.81,114.584,108.81z"/>
<g>
	<rect x="60.734" y="97.267" style="fill:#1E73BE;" width="18.524" height="61.808"/>
	<rect x="149.907" y="97.267" style="fill:#1E73BE;" width="18.524" height="61.808"/>
</g>
<path style="fill:#2896FF;" d="M154.797,257.587H74.371c-7.528,0-13.632-6.104-13.632-13.632V137.377
	c0-7.528,6.104-13.632,13.632-13.632h80.427c7.528,0,13.632,6.104,13.632,13.632v106.577
	C168.43,251.483,162.327,257.587,154.797,257.587z"/>
<path style="fill:#1E87DC;" d="M154.797,123.744h-40.22v133.842h40.22c7.528,0,13.632-6.104,13.632-13.633V137.377
	C168.43,129.849,162.327,123.744,154.797,123.744z"/>
<path style="fill:#1E73BE;" d="M133.535,224.325H95.633c-6.409,0-11.604-5.195-11.604-11.603c0-6.409,5.195-11.604,11.604-11.604
	h37.903c6.409,0,11.603,5.195,11.603,11.604C145.139,219.13,139.944,224.325,133.535,224.325z"/>
<path style="fill:#BA6746;" d="M424.016,330.753v157.069c0,13.353-10.825,24.178-24.178,24.178s-24.178-10.825-24.178-24.178
	V330.753H424.016z"/>
<path style="fill:#CE7151;" d="M365.22,330.753v157.069c0,13.353-10.825,24.178-24.178,24.178s-24.178-10.825-24.178-24.178V330.753
	H365.22z"/>
<path style="fill:#96A5D7;" d="M499.649,277.445c-0.33-0.905-33.229-90.911-47.717-133.071
	c-9.348-27.203-25.022-40.994-46.587-40.994h-69.81c-21.565,0-37.24,13.793-46.587,40.994
	c-14.488,42.157-47.386,132.167-47.717,133.071c-3.821,10.451,1.553,22.021,12.004,25.842c10.428,3.812,22.013-1.532,25.842-12.004
	c0.28-0.767,40.041-111.084,40.041-111.084L290.5,330.236c-1.343,6.93,3.999,13.334,10.989,13.334c31.132,0,106.791,0,137.9,0
	c7.013,0,12.332-6.398,10.989-13.334l-28.618-150.038c0,0,39.761,110.317,40.041,111.084c3.827,10.467,15.407,15.82,25.842,12.004
	C498.095,299.465,503.47,287.895,499.649,277.445z"/>
<path style="fill:#8093CF;" d="M499.649,277.445c-0.33-0.904-33.229-90.91-47.717-133.071
	c-9.348-27.203-25.022-40.995-46.587-40.995h-34.892V343.57c26.694,0,53.383,0,68.937,0c7.013,0,12.332-6.398,10.989-13.334
	l-28.618-150.038c0,0,39.761,110.317,40.041,111.084c3.827,10.467,15.407,15.82,25.842,12.004
	C498.095,299.465,503.47,287.895,499.649,277.445z"/>
<circle style="fill:#BA6746;" cx="370.439" cy="46.414" r="41.758"/>
<g>
	<path style="fill:#BA6746;" d="M499.649,277.445c3.821,10.451-1.553,22.021-12.004,25.842c-2.284,0.835-4.618,1.231-6.917,1.23
		c-8.219-0.001-15.939-5.067-18.925-13.235C461.711,291.034,499.608,277.334,499.649,277.445z"/>
	<path style="fill:#BA6746;" d="M279.077,291.282c-3.827,10.466-15.406,15.821-25.842,12.004
		c-10.451-3.821-15.826-15.391-12.004-25.842C241.271,277.334,279.167,291.035,279.077,291.282z"/>
</g>
<path style="fill:#FA2D14;" d="M370.44,158.775c-16.236,0-29.444-13.209-29.444-29.444s13.208-29.444,29.444-29.444
	s29.444,13.208,29.444,29.444S386.674,158.775,370.44,158.775z M370.44,114.394c-8.235,0-14.935,6.7-14.935,14.935
	s6.7,14.935,14.935,14.935s14.935-6.7,14.935-14.935C385.375,121.095,378.675,114.394,370.44,114.394z"/>
<g>
	<path style="fill:#BE1423;" d="M335.118,103.387c-6.763,0.054-12.942,1.476-18.524,4.251v57.013h18.524V103.387z"/>
	<path style="fill:#BE1423;" d="M424.285,107.651c-5.582-2.78-11.761-4.206-18.524-4.264v61.264h18.524V107.651z"/>
</g>
<path style="fill:#FF4F38;" d="M410.653,263.172h-80.427c-7.528,0-13.632-6.104-13.632-13.632V142.963
	c0-7.528,6.104-13.632,13.632-13.632h80.427c7.528,0,13.632,6.104,13.632,13.632V249.54
	C424.285,257.068,418.182,263.172,410.653,263.172z"/>
<path style="fill:#FF3C3C;" d="M410.653,129.33h-40.2v133.842h40.2c7.528,0,13.632-6.104,13.632-13.633V142.963
	C424.285,135.433,418.182,129.33,410.653,129.33z"/>
<path style="fill:#BE1423;" d="M389.391,229.91h-37.903c-6.408,0-11.603-5.195-11.603-11.603c0-6.408,5.195-11.604,11.603-11.604
	h37.903c6.409,0,11.603,5.195,11.603,11.604C400.993,224.715,395.799,229.91,389.391,229.91z"/>
<g>
</g>
<g>
</g>
<g>
</g>
<g>
</g>
<g>
</g>
<g>
</g>
<g>
</g>
<g>
</g>
<g>
</g>
<g>
</g>
<g>
</g>
<g>
</g>
<g>
</g>
<g>
</g>
<g>
</g>
</svg>
